<?xml version="1.0" encoding="UTF-8"?><svg id="Layer_1" xmlns="http://www.w3.org/2000/svg" viewBox="0 0 50 50"><defs><style>.cls-1{fill:#000;stroke-width:0px;}</style></defs><path class="cls-1" d="M18.25,41.18c-.11,0-.24,0-.36,0-3.41,0-6.83,0-10.24,0-1.13,0-1.9-.8-1.9-1.94,0-.8.12-1.59.37-2.35.67-2.08,1.95-3.65,3.84-4.69.5-.28.74-.68.74-1.26,0-3.59-.04-7.18,0-10.77.08-5.47,2.5-9.57,7.19-12.28,1.54-.88,3.21-1.37,4.97-1.54.25-.02.32-.1.32-.35-.01-.93-.02-1.87,0-2.8.03-.94.75-1.66,1.67-1.74.88-.07,1.7.52,1.91,1.4.05.2.05.41.06.61,0,.86,0,1.71,0,2.57,0,.21.06.29.27.31,6.94.7,12.18,6.57,12.21,13.68.01,3.61,0,7.22,0,10.83,0,.65.26,1.06.81,1.38,2.64,1.55,4.04,3.89,4.14,6.99.04,1.16-.75,1.95-1.9,1.95-3.41,0-6.83,0-10.24,0q-.39,0-.4.39c-.05,3.45-2.7,6.27-6.2,6.61-3.29.31-6.42-2.08-7.07-5.42-.1-.51-.12-1.03-.18-1.58ZM40.18,37.46c-.04-.09-.06-.14-.08-.19-.42-.8-1.05-1.4-1.83-1.84-1.7-.97-2.59-2.45-2.6-4.43-.02-3.75.03-7.5-.02-11.24-.05-3.99-2.58-7.6-6.24-9.07-2.17-.87-4.44-.92-6.68-.56-4.93.78-8.37,4.96-8.37,10.03,0,3.63.02,7.26,0,10.89-.01,1.95-.9,3.41-2.58,4.38-.31.18-.61.38-.88.62-.45.38-.81.84-1.05,1.42h30.35ZM28.06,41.21h-6.08c-.16,1.02.47,2.24,1.45,2.84,1.04.64,2.39.59,3.39-.16.87-.66,1.28-1.56,1.24-2.68Z"/></svg>