<?xml version="1.0" encoding="UTF-8"?><svg id="Layer_1" xmlns="http://www.w3.org/2000/svg" viewBox="0 0 50 50"><defs><style>.cls-1{fill:#000;stroke-width:0px;}</style></defs><path class="cls-1" d="M2.27,23.55c.12-.86.2-1.72.37-2.57,1.73-8.42,6.6-14.21,14.59-17.37.1-.04.2-.09.4-.17-.3-.19-.53-.33-.77-.48-.73-.47-.95-1.32-.54-2.01.42-.69,1.28-.91,2.02-.47,1.25.74,2.49,1.49,3.72,2.25.74.46.95,1.25.54,2.01-.7,1.27-1.41,2.53-2.13,3.79-.44.76-1.27,1-1.99.61-.72-.4-.94-1.26-.52-2.05.13-.24.26-.47.45-.8-.26.08-.42.12-.58.19-7.45,3.18-11.78,8.77-12.57,16.84-.88,8.99,4.5,17.27,12.98,20.35,1.07.39,2.2.61,3.3.89.75.19,1.22.68,1.26,1.39.04.63-.37,1.25-1.01,1.42-.27.07-.58.09-.85.03-9.61-2.12-15.67-7.94-18.13-17.48-.26-1.01-.32-2.06-.48-3.1-.02-.12-.05-.25-.08-.37,0-.97,0-1.93,0-2.9Z"/><path class="cls-1" d="M32.05,49.75c-1.39-.83-2.79-1.66-4.17-2.5-.71-.44-.92-1.25-.52-1.98.71-1.28,1.42-2.56,2.16-3.83.43-.74,1.25-.97,1.95-.59.71.38.96,1.24.57,2-.13.26-.28.5-.47.85.21-.06.34-.09.46-.14,7.18-2.99,11.5-8.3,12.58-16,1.47-10.49-5.7-20.22-16.08-22.1-.95-.17-1.5-.88-1.34-1.73.16-.84.92-1.32,1.83-1.13,8.35,1.75,14.21,6.55,17.26,14.52,4.44,11.61-1.6,24.78-13.23,29.16-.2.08-.41.16-.7.27.64.44,1.38.7,1.49,1.54.1.71-.23,1.22-1.11,1.66h-.68Z"/><path class="cls-1" d="M24.97,37.76c-2.3,0-4.61,0-6.91,0-2.5,0-4.19-1.69-4.19-4.18,0-2.93,0-5.87,0-8.8,0-1.59.66-2.78,1.98-3.64.14-.09.25-.36.25-.54-.02-1.43.12-2.82.67-4.17,1.47-3.62,5.3-5.97,9.04-5.52,4.17.5,7.37,3.5,7.96,7.51.11.73.06,1.48.13,2.22.02.19.13.43.28.53,1.29.84,1.95,2.01,1.95,3.56,0,2.96,0,5.93,0,8.89,0,2.44-1.71,4.14-4.13,4.14-2.34,0-4.67,0-7.01,0ZM25,23.53c-2.32,0-4.64,0-6.96,0-.91,0-1.28.38-1.28,1.3,0,2.91,0,5.83,0,8.74,0,.89.4,1.28,1.31,1.28,4.61,0,9.21,0,13.82,0,.96,0,1.33-.38,1.33-1.35,0-2.87,0-5.73,0-8.6,0-1.02-.35-1.37-1.36-1.38-2.29,0-4.57,0-6.86,0ZM30.93,20.61c.31-2.49-.91-4.88-3.07-6.08-2.13-1.19-4.77-.94-6.69.63-1.59,1.3-2.58,3.87-2.09,5.45h11.84Z"/><path class="cls-1" d="M23.54,29.17c0-.34-.01-.68,0-1.01.04-.8.66-1.41,1.43-1.42.77,0,1.42.59,1.45,1.39.03.71.03,1.42,0,2.13-.03.79-.69,1.4-1.45,1.4-.76,0-1.4-.63-1.43-1.42-.02-.35,0-.71,0-1.06Z"/></svg>