<?xml version="1.0" encoding="UTF-8"?><svg id="Layer_1" xmlns="http://www.w3.org/2000/svg" viewBox="0 0 50 50"><defs><style>.cls-1{fill:#171717;stroke-width:0px;}</style></defs><path class="cls-1" d="M39.96,25.14c-2.76-2.48-7.05-3.58-8.96-2.47-.19.11-.62.4-1.28.65-.11-1.25-1.06-8.38-7.7-12.13,1.34.03,2.67-.3,3.83-1,2.19-1.32,3.44-3.74,3.26-6.29-2.49-1.52-5.61-1.52-7.94-.02-1.91,1.24-2.66,3.07-2.94,4.4-2.11-.4-4.3.08-5.95,1.39-2.99,2.37-2.56,6.1-2.53,6.35,2.52,1.33,5.58,1.12,7.79-.51,1.01-.75,1.77-1.75,2.23-2.87,4.08,6.79.38,13.39.2,13.69-.02.03-.03.06-.04.09-.74-.35-1.2-.75-1.39-.88-1.87-1.35-9,.42-11.53,5.81-2.26,4.82.06,10.61,3.95,13.54,4.83,3.64,12.24,2.99,15.96-1.39.07-.08.13-.18.2-.27,1.97-2.5,2.77-6.03,1.87-9.28-.99-3.57-4.01-6.82-6.22-6.9-.12,0-.34,0-.63-.03-.23-.02-.49-.05-.79-.11.58-1.12,3.65-7.65.07-14.38.49.28.94.58,1.37.89,5.11,3.81,5.45,9.85,5.47,10.16,0,.03,0,.07.01.1-.81.1-1.42.01-1.64,0-1-.06-2.51.92-3.84,2.51h.04c2.65.1,5.92,3.62,7,7.53.93,3.37.21,7.06-1.85,9.81.89.28,1.79.47,2.69.53,6.02.46,11.93-4.07,12.7-9.76.44-3.26-.8-6.83-3.4-9.16Z"/></svg>