<?xml version="1.0" encoding="UTF-8"?><svg id="Layer_1" xmlns="http://www.w3.org/2000/svg" viewBox="0 0 50 50"><defs><style>.cls-1{fill:#000;stroke:#000;stroke-miterlimit:10;}</style></defs><path class="cls-1" d="M31.67,42.77c-.89,0-1.73-.35-2.38-1.01l-.13-.13-5.8-15.07-14.99-5.72-.14-.13c-.88-.86-1.21-2.08-.9-3.26.32-1.19,1.22-2.08,2.41-2.38l14.44-3.69,14.32-4.02c1.18-.33,2.41-.01,3.27.86.87.87,1.19,2.09.86,3.27l-4.03,14.34-3.68,14.42c-.3,1.19-1.19,2.09-2.38,2.41-.29.08-.59.12-.88.12ZM30.72,40.6c.38.32.88.42,1.36.29.54-.14.95-.56,1.09-1.1l3.69-14.44,4.03-14.37c.15-.54,0-1.1-.39-1.49s-.96-.54-1.49-.39l-14.34,4.03-14.46,3.69c-.54.14-.95.54-1.1,1.08-.13.49-.02.98.29,1.36l15.37,5.86,5.95,15.46Z"/><path class="cls-1" d="M24.07,26.76c-.23,0-.47-.09-.64-.27-.36-.36-.36-.93,0-1.29l6.91-6.91c.36-.36.93-.36,1.29,0s.36.93,0,1.29l-6.91,6.91c-.18.18-.41.27-.64.27Z"/></svg>