<?xml version="1.0" encoding="utf-8"?>
<!-- Generator: Adobe Illustrator 28.3.0, SVG Export Plug-In . SVG Version: 6.00 Build 0)  -->
<svg version="1.1" id="Layer_1" xmlns="http://www.w3.org/2000/svg" xmlns:xlink="http://www.w3.org/1999/xlink" x="0px" y="0px"
	 viewBox="0 0 50 50" style="enable-background:new 0 0 50 50;" xml:space="preserve">
<style type="text/css">
	.st0{fill:#93D8C5;}
	.st1{fill:none;stroke:#93D8C5;stroke-width:2;stroke-miterlimit:10;}
	.st2{fill:none;stroke:#231F20;stroke-miterlimit:10;}
	.st3{fill:#231F20;}
	.st4{fill:#FFFFFF;}
	.st5{fill:none;stroke:#000000;stroke-width:2;stroke-miterlimit:10;}
	.st6{stroke:#000000;stroke-miterlimit:10;}
	.st7{fill:#FF061E;}
	.st8{fill:#BDDB6B;}
	.st9{fill:#49A579;}
	.st10{fill:#6666FF;}
	.st11{fill:#191919;}
	.st12{fill:#F9F8F2;}
</style>
<g>
	<path d="M39.94,44.9H10.09c-2.38,0-4.32-2.12-4.32-4.72V24h38.48v16.18C44.25,42.78,42.32,44.9,39.94,44.9z M7.77,26v14.18
		c0,1.5,1.04,2.72,2.32,2.72h29.85c1.28,0,2.32-1.22,2.32-2.72V26H7.77z"/>
	<g>
		<path d="M40.31,14.4H9.69c-1.88,0-3.4,1.81-3.4,4.04V25h37.43v-6.56C43.72,16.21,42.19,14.4,40.31,14.4z"/>
		<path d="M44.22,25.5H5.78v-7.06c0-2.5,1.75-4.54,3.9-4.54h30.63c2.15,0,3.9,2.04,3.9,4.54V25.5z M6.78,24.5h36.43v-6.06
			c0-1.95-1.3-3.54-2.9-3.54H9.69c-1.6,0-2.9,1.59-2.9,3.54V24.5z"/>
	</g>
</g>
<circle class="st4" cx="16.29" cy="18.93" r="2.27"/>
<circle class="st4" cx="25.27" cy="18.93" r="2.27"/>
<circle class="st4" cx="34.24" cy="18.93" r="2.27"/>
<g>
	<circle cx="16.37" cy="31.11" r="2.27"/>
	<circle cx="25.34" cy="31.11" r="2.27"/>
	<circle cx="34.32" cy="31.11" r="2.27"/>
</g>
<g>
	<circle cx="16.37" cy="37.63" r="2.27"/>
	<circle cx="25.34" cy="37.63" r="2.27"/>
	<circle cx="34.32" cy="37.63" r="2.27"/>
</g>
<path d="M16.29,19.7L16.29,19.7c-0.46,0-0.83-0.37-0.83-0.83v-5.99c0-0.46,0.37-0.83,0.83-0.83h0c0.46,0,0.83,0.37,0.83,0.83v5.99
	C17.12,19.33,16.75,19.7,16.29,19.7z"/>
<path d="M25.27,19.7L25.27,19.7c-0.46,0-0.83-0.37-0.83-0.83v-5.99c0-0.46,0.37-0.83,0.83-0.83h0c0.46,0,0.83,0.37,0.83,0.83v5.99
	C26.1,19.33,25.73,19.7,25.27,19.7z"/>
<path d="M34.24,19.7L34.24,19.7c-0.46,0-0.83-0.37-0.83-0.83v-5.99c0-0.46,0.37-0.83,0.83-0.83l0,0c0.46,0,0.83,0.37,0.83,0.83v5.99
	C35.07,19.33,34.7,19.7,34.24,19.7z"/>
</svg>
