<?xml version="1.0" encoding="UTF-8"?><svg id="Layer_1" xmlns="http://www.w3.org/2000/svg" viewBox="0 0 50 50"><defs><style>.cls-1{fill:#000;stroke-width:0px;}</style></defs><path class="cls-1" d="M37.01,15.62c0,3.38,0,6.62,0,9.86,0,4.89,0,9.78,0,14.67,0,2.66-.94,3.61-3.53,3.62-5.77.01-11.54.02-17.31,0-2.14,0-3.26-1.03-3.26-3.06-.03-8.08-.01-16.15,0-24.23,0-.26.06-.52.1-.85h24ZM17.18,29.81c0,2.25,0,4.49,0,6.74,0,1.17.31,2.17,1.67,2.14,1.26-.03,1.57-1,1.57-2.09,0-4.6,0-9.21,0-13.81,0-1.16-.29-2.16-1.68-2.13-1.28.03-1.56.98-1.56,2.08,0,2.36,0,4.71,0,7.07ZM23.38,29.64c0,2.36,0,4.73,0,7.09,0,1.07.36,1.91,1.52,1.96,1.28.05,1.66-.85,1.65-1.98,0-4.67,0-9.35,0-14.02,0-1.11-.3-2.05-1.6-2.03-1.29.01-1.58.95-1.57,2.06.01,2.31,0,4.62,0,6.93ZM32.73,29.65c0-2.35,0-4.71,0-7.06,0-1.06-.34-1.9-1.52-1.94-1.29-.04-1.65.85-1.65,1.97,0,4.71,0,9.42,0,14.13,0,1.05.33,1.92,1.51,1.94,1.26.03,1.66-.83,1.65-1.97-.01-2.35,0-4.71,0-7.06Z"/><path class="cls-1" d="M29.24,9.65c1.26,0,2.56,0,3.87,0q2.62,0,3.15,2.41,2.55.43,2.51,1.96H11.36q-.29-1.51,2.35-1.97c.42-2.35.47-2.4,2.97-2.4,1.31,0,2.62,0,3.49,0,3.02,0,6.05,0,9.07,0ZM26.12,6.91"/><path class="cls-1" d="M24.62,6.22c-1.89,0-3.42,1.53-3.42,3.42h1.56c0-1.03.83-1.86,1.86-1.86s1.86.83,1.86,1.86h1.56c0-1.89-1.53-3.42-3.42-3.42Z"/></svg>