<?xml version="1.0" encoding="utf-8"?>
<!-- Generator: Adobe Illustrator 28.3.0, SVG Export Plug-In . SVG Version: 6.00 Build 0)  -->
<svg version="1.1" id="Layer_1" xmlns="http://www.w3.org/2000/svg" xmlns:xlink="http://www.w3.org/1999/xlink" x="0px" y="0px"
	 viewBox="0 0 50 50" style="enable-background:new 0 0 50 50;" xml:space="preserve">
<style type="text/css">
	.st0{fill:#93D8C5;}
	.st1{fill:none;stroke:#93D8C5;stroke-width:2;stroke-miterlimit:10;}
	.st2{fill:none;stroke:#231F20;stroke-miterlimit:10;}
	.st3{fill:#231F20;}
	.st4{fill:#FFFFFF;}
	.st5{fill:none;stroke:#000000;stroke-width:2;stroke-miterlimit:10;}
	.st6{stroke:#000000;stroke-miterlimit:10;}
	.st7{fill:#FF061E;}
	.st8{fill:#BDDB6B;}
	.st9{fill:#49A579;}
	.st10{fill:#6666FF;}
	.st11{fill:#191919;}
	.st12{fill:#F9F8F2;}
</style>
<path d="M32.43,11.79c2.09,1.73,4.1,3.4,6.16,5.11c-2.38,2.89-4.64,5.64-6.91,8.39c-4.44,5.37-8.87,10.74-13.33,16.09
	c-0.38,0.46-0.93,0.85-1.48,1.09c-1.7,0.74-3.43,1.4-5.16,2.07c-1.17,0.45-1.61,0.11-1.4-1.13c0.35-1.96,0.72-3.92,1.11-5.88
	c0.07-0.36,0.27-0.73,0.51-1.01c6.61-8.02,13.23-16.04,19.86-24.05C31.94,12.28,32.12,12.11,32.43,11.79z"/>
<path d="M39.9,15.66c-2.29-1.89-4.31-3.55-6.52-5.37c0.79-0.66,1.46-1.47,2.33-1.88c2.17-1.02,6.04,1.95,5.6,4.32
	C41.12,13.73,40.41,14.63,39.9,15.66z"/>
</svg>
