<?xml version="1.0" encoding="UTF-8"?><svg id="Layer_1" xmlns="http://www.w3.org/2000/svg" viewBox="0 0 50 50"><defs><style>.cls-1{stroke:#000;stroke-miterlimit:10;stroke-width:1.5px;}.cls-1,.cls-2{fill:#000;}.cls-2{stroke-width:0px;}</style></defs><path class="cls-1" d="M42.87,10.7c-.98-1.72-2.49-2.5-3.3-2.8-.5-.19-1.06.06-1.25.56-.19.5.06,1.06.56,1.25.32.12.97.43,1.58,1.02-1.13.58-3.91,2.34-5.88,6.24-.18.41-.37.82-.55,1.23l1.29.69c1.92-4.79,5.2-6.59,6-6.96.4.83.46,1.62.43,2.16-.03.54.38.99.92,1.02.08,0,.16,0,.23-.01.43-.08.77-.45.79-.9.05-.86-.06-2.17-.82-3.51Z"/><path class="cls-2" d="M29.05,33.95h-8.28c0,.19,0,.36,0,.53,0,3.17,0,6.33,0,9.5,0,1.54-.81,2.35-2.36,2.35-3.26,0-6.52,0-9.79,0-1.48,0-2.32-.83-2.32-2.3,0-6.59,0-13.18,0-19.77,0-.82.3-1.46.95-1.96,5.42-4.21,10.83-8.42,16.25-12.63.96-.74,1.87-.75,2.82,0,5.42,4.21,10.83,8.43,16.25,12.63.65.5.95,1.13.95,1.96,0,6.61,0,13.21,0,19.82,0,1.41-.85,2.26-2.26,2.26-3.31,0-6.62,0-9.93,0-1.43,0-2.26-.82-2.27-2.25,0-3.18,0-6.36,0-9.55,0-.19,0-.38,0-.59Z"/></svg>