<?xml version="1.0" encoding="UTF-8"?><svg id="a" xmlns="http://www.w3.org/2000/svg" viewBox="0 0 50 50"><defs><style>.b{fill:#191919;}</style></defs><path class="b" d="M18.45,31.51l-7.74-3.07c-.15,.38-.36,.92-.56,1.47-.48,1.31-.95,2.62-1.44,3.93-.36,.99-1.08,1.41-1.88,1.12-.8-.29-1.06-1.05-.69-2.08,.68-1.9,1.35-3.8,2.08-5.68,.21-.54,.09-.82-.32-1.18-1.6-1.38-2.93-2.99-3.99-4.81-.16-.27-.3-.54-.42-.83-.3-.76-.05-1.49,.59-1.79,.7-.33,1.35-.03,1.84,.66,1.03,1.44,1.99,2.98,3.24,4.22,3.28,3.24,7.36,4.9,11.89,5.48,4.99,.63,9.86,.25,14.49-1.87,3.67-1.69,6.61-4.2,8.53-7.81,.43-.8,1.15-1.04,1.88-.65,.69,.36,.91,1.06,.51,1.86-1.06,2.17-2.58,3.99-4.39,5.57-.41,.36-.51,.64-.31,1.17,.73,1.88,1.4,3.78,2.08,5.68,.34,.96,.08,1.76-.64,2.05-.84,.33-1.58-.09-1.96-1.11-.67-1.84-1.34-3.68-1.96-5.39l-7.76,3.09c.24,1.34,.52,2.86,.8,4.37,.12,.66,.27,1.32,.37,1.98,.14,.92-.28,1.56-1.07,1.68-.77,.12-1.46-.34-1.63-1.2-.36-1.88-.68-3.76-1.01-5.65-.05-.3-.12-.6-.19-.96-.75,.04-1.46,.12-2.18,.12-1.6,0-3.2-.02-4.8-.11-.51-.03-.67,.1-.75,.58-.33,2.01-.7,4.02-1.07,6.03-.13,.7-.6,1.17-1.27,1.14-.44-.02-.95-.35-1.25-.69-.2-.23-.16-.74-.1-1.11,.3-1.84,.65-3.66,.98-5.5,.05-.28,.08-.56,.1-.7Z"/></svg>