<?xml version="1.0" encoding="UTF-8"?><svg id="a" xmlns="http://www.w3.org/2000/svg" viewBox="0 0 50 50"><defs><style>.b{fill:#ff061e;}</style></defs><path class="b" d="M45.03,6.77c-.64-2.75-2.37-4.41-3.35-5.15-.61-.46-1.47-.35-1.93,.26-.46,.61-.35,1.47,.26,1.93,.39,.29,1.15,.98,1.73,2.04-1.77,.33-6.27,1.59-10.53,6.1-.51,.59-1.02,1.19-1.53,1.78-.98,1.14-1.71,2.24-2.26,3.21-1.49-.64-2.37-1.33-2.73-1.56-3.45-2.15-17.95,2.47-19.75,13.83-1.29,8.1,4.47,15.97,11.84,18.53,9.31,3.24,20.41-2.27,22.92-10.88,2.12-7.27-1.89-16.69-7.61-18.61-1.14-.38-2.12-.39-2.7-.38,4.9-8.38,11.61-9.82,13.04-10.04,.2,1.29-.04,2.4-.3,3.12-.26,.72,.11,1.51,.83,1.77,.11,.04,.21,.06,.32,.07,.62,.07,1.23-.29,1.45-.91,.41-1.15,.81-2.97,.31-5.11Z"/></svg>