<?xml version="1.0" encoding="UTF-8"?><svg id="a" xmlns="http://www.w3.org/2000/svg" viewBox="0 0 50 50"><defs><style>.b{fill:#191919;}</style></defs><path class="b" d="M48.85,26.84c-1.11-1.26-2.22-2.52-3.41-3.69-1.19-1.17-2.43-2.28-3.73-3.31-.02-.15,0-.32,.08-.53,.73-1.88,1.4-3.78,2.08-5.68,.37-1.03,.1-1.79-.69-2.08-.8-.29-1.52,.13-1.88,1.12-.55,1.49-.96,2.54-1.44,3.93-.23,.66-.44,1.18-.56,1.47-.02-.01-.04-.02-.06-.04-1.42-.95-2.91-1.82-4.49-2.56-1.01-.48-2.04-.89-3.09-1.24,.19-1.23,.79-4.35,.97-5.44,.06-.37,.1-.88-.1-1.11-.3-.34-.81-.67-1.25-.69-.21,0-.4,.03-.57,.11-.44,.22-.61,.73-.7,1.03-.21,.74-.62,2.69-1.08,5.37-1.29-.25-2.6-.4-3.95-.4-1.37,0-2.7,.16-4,.42-.31-1.75-.62-3.6-.96-5.37-.16-.86-.86-1.32-1.63-1.2-.3,.05-.55,.17-.73,.36-.36,.37-.36,.92-.33,1.33,.06,.93,.42,2.94,1.02,5.59-.91,.3-1.81,.66-2.7,1.07-1.79,.83-3.46,1.81-5.06,2.89-.38-1.38-1.17-4.09-1.82-5.5-.19-.41-.5-1.03-1.1-1.18-.26-.07-.55-.05-.86,.07-.72,.28-.99,1.09-.64,2.05,.68,1.9,1.35,3.8,2.08,5.68,.08,.21,.1,.37,.09,.52-2.58,2.02-4.93,4.34-7.09,6.9-.79,.94-.8,1.82,.02,2.74,1.14,1.28,2.28,2.56,3.51,3.76,2.99,2.92,6.3,5.41,10.05,7.26,2.92,1.44,5.98,2.39,9.25,2.55,3.65,.18,7.09-.67,10.37-2.21,5.72-2.68,10.39-6.71,14.42-11.51,.65-.78,.66-1.71-.02-2.47Zm-5.77,3.24c-3.03,2.97-6.34,5.56-10.21,7.35-2.89,1.34-5.9,2.1-9.11,1.84-2.9-.24-5.58-1.2-8.12-2.58-4.01-2.17-7.42-5.1-10.5-8.45-.04-.05-.08-.1-.15-.21,.89-.89,1.76-1.81,2.68-2.67,2.84-2.68,5.93-5,9.49-6.64,2.32-1.07,4.73-1.77,7.29-1.86,2.76-.1,5.37,.54,7.88,1.64,3.74,1.63,6.95,4.02,9.9,6.78,.85,.8,1.66,1.66,2.48,2.5,.09,.09,.17,.19,.28,.33-.65,.67-1.27,1.34-1.92,1.98Z"/><path class="b" d="M25.1,20.61c-4.2-.02-7.57,3.29-7.59,7.45-.01,4.13,3.33,7.49,7.46,7.5,4.14,.01,7.5-3.32,7.51-7.45,0-4.11-3.31-7.49-7.38-7.5Zm-.09,11.23c-2.08,0-3.76-1.68-3.76-3.76,0-2.05,1.69-3.74,3.75-3.74s3.74,1.69,3.75,3.75c0,2.04-1.69,3.75-3.74,3.75Z"/></svg>