<?xml version="1.0" encoding="UTF-8"?><svg id="Layer_1" xmlns="http://www.w3.org/2000/svg" viewBox="0 0 100 100"><defs><style>.cls-1{fill:#000;}.cls-1,.cls-2{stroke-width:0px;}.cls-2{fill:#e63430;}</style></defs><path class="cls-2" d="M8.47,59.43c-1.63-2.92-1.52-6.49-.95-9.79s1.55-6.55,1.52-9.89c8.2-2.26,16.68-3.33,25.14-4.21,17.07-1.79,34.2-2.89,51.36-3.3,1.82-.04,3.69-.07,5.41.52,2.75.94,4.86,3.52,5.23,6.4.28,2.14-.9,4.8-3.05,4.83-1.07.02-2.27-.61-3.14.02-1.17.85-.26,2.66.65,3.79,2.1,2.59,3.95,5.66,3.88,9s-2.76,6.78-6.09,6.55c-4.14-.28-6.04-5.3-9.49-7.61-4.06-2.71-10.43-.6-12.06,4.01-.33.95-.5,1.97-1.06,2.81-1.37,2.04-4.3,2.05-6.75,1.89-9.29-.61-18.64-.47-27.9.43.39-4.6-4.03-8.98-8.62-8.55-5.12.48-7.43,5.54-6.99,10.07-2.36-1.42-5.73-4.52-7.09-6.96Z"/><path class="cls-1" d="M80.31,64.1c-.89,3.43-2.6,4.97-5.45,5-2.94.03-4.61-1.42-5.65-4.95H28.59c-1.37,3.76-3.01,5.11-6,4.94-2.68-.15-4.37-1.76-5.02-4.62-1.28-.41-2.52-.65-3.6-1.21-1.14-.58-1.71-1.64-1.81-3.01-.54-7.32-.5-14.62.32-21.91.17-1.54.38-3.08.57-4.61.26-2.13.92-2.72,3.1-2.73,13.2-.03,26.4-.07,39.6-.09,7.75,0,15.51-.01,23.26.05,2.14.02,4.29.23,6.42.44,1.29.13,2.48.54,3.2,1.79.14.24.63.39.96.39,2.46.04,3.5.88,4.6,3.07.79,1.56.76,3.12.72,4.73-.02,1.02-.51,1.67-1.58,1.71-1.04.04-1.53-.61-1.58-1.56-.05-1.11-.11-2.24.04-3.33.24-1.68-.1-2.23-1.82-2.35.48,1.87,1.01,3.72,1.41,5.59,1.33,6.19,1.34,12.47,1.04,18.76-.11,2.21-2.14,3.82-4.69,3.88-2.46.06-4.92.01-7.44.01ZM89.25,35.38c.39,0,.63,0,.86,0,1.79.09,2.48,1.14,2.15,2.91-.2,1.07-.17,2.22-.02,3.31.06.4.76,1.02,1.14.99.39-.03,1.01-.68,1.05-1.1.14-1.47.22-2.91-.52-4.39-1.23-2.47-1.88-3.04-4.63-3.09-.32,0-.8-.2-.93-.45-.59-1.11-1.56-1.58-2.71-1.7-1.93-.21-3.88-.45-5.82-.46-9.22-.06-18.45-.05-27.67-.04-12.01,0-24.02.03-36.02.05-1.89,0-2.36.42-2.63,2.29-1.29,8.81-1.63,17.64-.88,26.52.2,2.33,2.26,3.84,4.6,3.32.66-3.53,2.33-5.26,5.28-5.45,3.36-.22,5.02,1.21,6.37,5.54h40.11c.71-3.71,2.47-5.45,5.52-5.55,3.34-.11,5.02,1.41,6.12,5.54,2.56,0,5.15.14,7.71-.04,2.35-.16,3.64-1.78,3.74-4.14.33-8.1.08-16.13-2.81-24.06ZM23.02,58.77c-2.94-.01-4.97,1.96-5.01,4.87-.04,2.98,1.99,5.03,4.97,5.03,2.97,0,5.06-2.07,5.04-4.99-.02-2.88-2.07-4.89-5-4.9ZM69.78,63.77c.04,2.97,2.09,4.93,5.11,4.88,2.9-.04,4.95-2.14,4.9-5-.06-2.95-2.13-4.92-5.14-4.88-2.92.04-4.92,2.09-4.87,5Z"/><path class="cls-1" d="M82.7,35.26c1.41,0,2.71-.06,4.01.04.29.02.71.59.76.95.42,2.92,1.08,8.62,1.08,8.62-.17,4.65.69,13.43.25,15.16-.16.61-.54.97-.54.97-.14.13-.37.3-1.05.48-.45.12-1.12.3-2.08.26-.89-.04-1.39-.07-1.84-.45-.48-.41-.61-1-.65-1.29.09-9.85.04-14.31-.03-16.45-.02-.69,0-3.35,0-6.92,0-.42.03-.85.06-1.39ZM83.12,44.54c0,4.8-.02,9.6-.03,14.39-.03.35,0,.88.24,1.45.04.09.06.14.1.2.41.62,1.46.57,1.99.55.84-.04,1.86-.08,2.48-.8.53-.61.52-1.43.51-1.76-.04-2.15-.11-7.03-.28-13.5,0-.02.02-.32-.21-.47-.1-.07-.2-.08-.25-.08-1.52,0-3.04.01-4.56.02ZM83.08,35.74v8.3c1.53,0,3.05,0,4.58,0,.05,0,.15,0,.24-.07.18-.14.17-.44.16-.57-.03-.47-.4-3.33-.95-7.2-.05-.08-.17-.23-.37-.33-.16-.09-.31-.11-.4-.12-1.09,0-2.18,0-3.26,0Z"/><path class="cls-1" d="M26.01,63.68c.01,1.78-1.21,3.02-2.97,3.02-1.76,0-3.03-1.27-3.02-3,.01-1.68,1.24-2.93,2.93-2.97,1.74-.04,3.04,1.21,3.05,2.94ZM23.03,61.19c-1.52,0-2.55,1-2.56,2.5-.01,1.55,1.04,2.58,2.62,2.56,1.5-.02,2.52-1.06,2.51-2.56-.01-1.49-1.05-2.5-2.56-2.5Z"/><path class="cls-1" d="M77.78,63.72c0,1.75-1.25,2.99-3.02,2.98-1.71-.02-2.94-1.23-2.97-2.92-.03-1.74,1.23-3.03,2.97-3.04,1.77,0,3.01,1.22,3.02,2.98ZM77.35,63.79c.04-1.51-.94-2.56-2.45-2.6-1.53-.05-2.6.91-2.66,2.39-.06,1.57.95,2.64,2.51,2.67,1.53.02,2.56-.95,2.6-2.46Z"/></svg>