<?xml version="1.0" encoding="UTF-8"?><svg id="Layer_1" xmlns="http://www.w3.org/2000/svg" viewBox="0 0 50 50"><defs><style>.cls-1{fill:#000;stroke-width:0px;}</style></defs><path class="cls-1" d="M2.09,23.99c.05-.44.08-.88.14-1.32.62-5.04,2.79-9.29,6.54-12.72,2.75-2.52,5.97-4.15,9.63-4.89,2.29-.46,4.6-.53,6.92-.19,3.67.53,6.95,1.96,9.84,4.27.58.46,1.12.97,1.65,1.48.77.76.8,2.01.08,2.78-.77.83-1.98.91-2.83.18-.37-.32-.7-.67-1.07-.98-2.69-2.26-5.78-3.56-9.29-3.83-3.71-.28-7.16.58-10.25,2.66-3.81,2.56-6.19,6.11-7,10.64-.81,4.51.12,8.68,2.79,12.41,2.29,3.21,5.39,5.33,9.22,6.27,5.01,1.22,9.62.27,13.79-2.79.6-.44,1.15-.95,1.69-1.46,1.18-1.1,3.04-.6,3.41.93.18.76-.01,1.42-.56,1.97-.96.96-2,1.82-3.13,2.56-2.04,1.34-4.24,2.29-6.62,2.84-1.17.27-2.36.43-3.56.49-.12,0-.23.03-.35.05h-1.43c-.43-.04-.87-.07-1.3-.11-4.01-.43-7.61-1.87-10.73-4.43-4.42-3.63-6.91-8.32-7.47-14.02-.03-.29-.06-.58-.09-.87,0-.64,0-1.27,0-1.91Z"/><path class="cls-1" d="M40.87,27.03c-.11,0-.22,0-.33,0-6.97,0-13.93,0-20.9,0-.44,0-.87-.06-1.26-.3-.79-.5-1.16-1.4-.91-2.29.24-.87,1.01-1.46,1.94-1.49.1,0,.19,0,.29,0,6.95,0,13.9,0,20.85,0h.39c-.1-.11-.15-.17-.21-.23-.79-.79-1.58-1.57-2.36-2.36-.93-.94-.83-2.34.2-3.12.64-.48,1.59-.52,2.26-.08.19.13.36.28.53.44,1.98,1.97,3.96,3.95,5.93,5.93.8.8.83,2.06.02,2.87-2.04,2.05-4.08,4.1-6.13,6.13-.8.79-2.05.78-2.83,0-.8-.79-.83-2.05-.04-2.87.79-.82,1.6-1.61,2.41-2.41.06-.06.15-.09.23-.13-.03-.04-.05-.08-.08-.11Z"/></svg>