<?xml version="1.0" encoding="UTF-8"?><svg id="Layer_1" xmlns="http://www.w3.org/2000/svg" viewBox="0 0 50 50"><defs><style>.cls-1,.cls-2{fill:#000;stroke:#000;stroke-miterlimit:10;}.cls-2{stroke-width:.75px;}</style></defs><path class="cls-2" d="M23.1,22.47s-.04,0-.05,0c-2.43-.02-4.51-1.6-5.06-3.84-.09-.37.16-.75.55-.83.39-.08.79.15.89.52.39,1.58,1.92,2.74,3.63,2.76.01,0,.03,0,.04,0,1.74,0,3.28-1.16,3.67-2.76.09-.37.49-.6.89-.52.4.09.65.46.55.83-.55,2.23-2.69,3.84-5.11,3.84Z"/><path class="cls-1" d="M23.1,27.43c-5.73,0-10.39-4.66-10.39-10.39s4.66-10.39,10.39-10.39,10.39,4.66,10.39,10.39-4.66,10.39-10.39,10.39ZM23.1,8.62c-4.64,0-8.42,3.78-8.42,8.42s3.78,8.42,8.42,8.42,8.42-3.78,8.42-8.42-3.78-8.42-8.42-8.42Z"/><path class="cls-1" d="M5.07,40.5c-.53,0-.97-.42-.99-.95-.06-1.62.09-7.26,4.25-11.69,3.16-3.36,6.89-4.21,8.83-4.43.53-.06,1.03.33,1.09.87.06.54-.33,1.03-.87,1.09-1.67.18-4.89.92-7.61,3.82-3.64,3.87-3.76,8.83-3.71,10.26.02.54-.41,1-.95,1.02-.01,0-.02,0-.03,0Z"/><path class="cls-1" d="M37.63,30.4c-.42,0-.82-.28-.94-.7-.17-.55-.68-1.63-2.2-2.6-2.02-1.3-4.55-1.61-5.54-1.68-.54-.04-.95-.51-.91-1.06.04-.54.51-.95,1.06-.91,1.42.11,4.14.51,6.46,1.99,1.96,1.26,2.72,2.7,3.02,3.69.16.52-.14,1.07-.66,1.23-.1.03-.19.04-.29.04Z"/><path class="cls-1" d="M44.93,34.6h-14.61c-.55,0-.99-.44-.99-.99s.44-.99.99-.99h14.61c.55,0,.99.44.99.99s-.44.99-.99.99Z"/><path class="cls-1" d="M44.93,38.98h-14.61c-.55,0-.99-.44-.99-.99s.44-.99.99-.99h14.61c.55,0,.99.44.99.99s-.44.99-.99.99Z"/><path class="cls-1" d="M44.93,43.35h-14.61c-.55,0-.99-.44-.99-.99s.44-.99.99-.99h14.61c.55,0,.99.44.99.99s-.44.99-.99.99Z"/></svg>