<?xml version="1.0" encoding="UTF-8"?><svg id="Layer_1" xmlns="http://www.w3.org/2000/svg" viewBox="0 0 50 50"><defs><style>.cls-1{fill:#000;stroke-width:0px;}</style></defs><path class="cls-1" d="M6.87,34.24c-.18-.41-.37-.81-.54-1.22-1.98-4.68-2.21-9.45-.66-14.29,1.14-3.55,3.11-6.57,5.92-9.03,1.76-1.54,3.73-2.75,5.9-3.61,3.45-1.37,7-1.76,10.66-1.19.73.11,1.45.28,2.16.47,1.05.27,1.69,1.35,1.45,2.37-.26,1.1-1.26,1.78-2.36,1.57-.48-.09-.94-.23-1.42-.32-3.46-.62-6.79-.21-9.96,1.31-3.36,1.6-5.92,4.07-7.57,7.41-2.03,4.11-2.33,8.38-.78,12.71,1.54,4.31,4.42,7.47,8.59,9.37,3.59,1.64,7.33,1.94,11.12.85,4.95-1.43,8.48-4.56,10.57-9.28.3-.68.52-1.4.74-2.11.48-1.54,2.34-2.03,3.42-.89.54.56.69,1.24.49,1.98-.35,1.31-.83,2.57-1.44,3.78-1.1,2.17-2.54,4.1-4.33,5.76-.88.82-1.83,1.55-2.84,2.2-.1.06-.19.14-.28.21l-1.24.71c-.4.18-.79.37-1.19.55-3.69,1.62-7.54,2.17-11.52,1.5-5.65-.95-10.13-3.78-13.46-8.45-.17-.24-.34-.48-.51-.71-.32-.55-.63-1.1-.95-1.65Z"/><path class="cls-1" d="M15.02,42.73c-.37-.24-.75-.47-1.12-.72-4.23-2.81-7.06-6.65-8.45-11.54-1.02-3.59-1.04-7.19-.06-10.8.61-2.26,1.58-4.35,2.92-6.28,2.12-3.04,4.86-5.34,8.22-6.89.67-.31,1.36-.57,2.06-.81,1.02-.35,2.15.19,2.52,1.17.4,1.06-.07,2.18-1.1,2.61-.45.19-.91.33-1.36.52-3.22,1.39-5.77,3.58-7.58,6.6-1.91,3.2-2.68,6.66-2.21,10.36.59,4.55,2.7,8.27,6.38,11.02,3.67,2.74,7.82,3.77,12.34,3.06,3.89-.62,7.18-2.43,9.73-5.44,3.33-3.93,4.55-8.49,3.67-13.58-.13-.73-.34-1.45-.55-2.17-.45-1.55.82-2.99,2.36-2.64.76.17,1.26.65,1.51,1.38.43,1.28.73,2.6.89,3.94.28,2.42.15,4.82-.42,7.19-.28,1.17-.67,2.3-1.15,3.4-.05.11-.08.22-.12.33l-.64,1.28c-.23.37-.45.75-.68,1.11-2.18,3.4-5.08,5.97-8.77,7.62-5.23,2.33-10.53,2.46-15.88.41-.27-.1-.55-.21-.82-.31-.57-.28-1.14-.57-1.7-.85Z"/><path class="cls-1" d="M42.2,11.43l-1.08-.52.7-.97c.88-1.21-.44-2.78-1.79-2.14l-1.08.52-.32-1.15c-.4-1.44-2.45-1.39-2.78.06l-.27,1.17-1.1-.47c-1.37-.58-2.62,1.05-1.69,2.22l.75.94-1.05.57c-1.31.71-.81,2.7.68,2.7h1.2l-.21,1.18c-.26,1.47,1.61,2.32,2.54,1.15l.75-.94.79.9c.98,1.12,2.81.19,2.48-1.27l-.27-1.17,1.2-.06c1.49-.07,1.9-2.08.56-2.73ZM37.37,12.74c-.59,0-1.06-.48-1.06-1.06s.48-1.06,1.06-1.06,1.06.48,1.06,1.06-.48,1.06-1.06,1.06Z"/><path class="cls-1" d="M13.83,38.35c.02-.56.09-1.37.38-2.29,1.24-3.95,5.37-6.84,9.31-7.15,3.83-.3,7.27.55,9.98,3.47,1.65,1.77,2.53,3.89,2.67,6.31.03.51-.02.83-.2,1.02-.31.33-.85.27-.99.26-1.03-.08-8.96-.06-20.1-.01-.15-.03-.34-.09-.52-.22-.6-.45-.54-1.3-.53-1.38Z"/><path class="cls-1" d="M31.47,21.35c0,3.63-2.94,6.59-6.55,6.56-3.58-.02-6.49-2.94-6.51-6.53-.02-3.62,2.93-6.55,6.57-6.54,3.61.01,6.49,2.89,6.5,6.5Z"/><rect class="cls-1" x="17.83" y="37.83" width="14.33" height="4.1"/></svg>