<?xml version="1.0" encoding="UTF-8"?><svg id="Layer_1" xmlns="http://www.w3.org/2000/svg" viewBox="0 0 50 50"><defs><style>.cls-1{fill:#000;stroke-width:0px;}</style></defs><path class="cls-1" d="M25,4.53C13.71,4.53,4.53,13.72,4.53,25s9.18,20.47,20.47,20.47,20.47-9.18,20.47-20.47S36.29,4.53,25,4.53ZM34.27,19.72l-10.14,13.05c-.69.89-1.97,1.05-2.85.36-.16-.13-.29-.27-.4-.43l-5.05-5.72c-.74-.84-.66-2.13.18-2.87.84-.74,2.13-.66,2.87.18l3.56,4.04,8.62-11.09c.69-.89,1.97-1.05,2.85-.36s1.05,1.97.36,2.85Z"/></svg>