<?xml version="1.0" encoding="utf-8"?>
<!-- Generator: Adobe Illustrator 28.3.0, SVG Export Plug-In . SVG Version: 6.00 Build 0)  -->
<svg version="1.1" id="Layer_1" xmlns="http://www.w3.org/2000/svg" xmlns:xlink="http://www.w3.org/1999/xlink" x="0px" y="0px"
	 viewBox="0 0 100 100" style="enable-background:new 0 0 100 100;" xml:space="preserve">
<style type="text/css">
	.st0{fill:#93D8C5;}
	.st1{fill:none;stroke:#93D8C5;stroke-width:2;stroke-miterlimit:10;}
	.st2{fill:none;stroke:#231F20;stroke-miterlimit:10;}
	.st3{fill:#231F20;}
	.st4{fill:#FFFFFF;}
	.st5{fill:none;stroke:#000000;stroke-width:2;stroke-miterlimit:10;}
	.st6{stroke:#000000;stroke-miterlimit:10;}
	.st7{fill:#FF061E;}
	.st8{fill:#BDDB6B;}
	.st9{fill:#49A579;}
	.st10{fill:#6666FF;}
	.st11{fill:#191919;}
	.st12{fill:#F9F8F2;}
</style>
<path class="st0" d="M20.77,34.47c10.28-8.8,20.57-17.61,30.94-26.48c0.37-0.32,0.92-0.32,1.29,0l31.01,26.55
	c0.44,0.37,0.57,0.97,0.34,1.45c-0.22,0.45-0.81,0.6-1.04,0.65c-1.91,0.44-21.73,0.08-25.17,0.02c-12.21,0-24.41-0.01-36.62-0.01
	c-0.46-0.01-0.88-0.25-1.09-0.64C20.19,35.5,20.31,34.87,20.77,34.47z"/>
<path class="st7" d="M61.76,42.01c-3.71-2.69-9.13-3.49-11.33-1.88c-0.22,0.16-0.71,0.57-1.49,0.96
	c-0.33-1.7-2.84-12.21-14.14-14.99c0.4-0.87,1.02-1.62,1.98-2.06c0.46-0.21,0.66-0.75,0.46-1.21c-0.21-0.46-0.76-0.66-1.21-0.46
	c-4.91,2.23-3.56,9.4-3.5,9.71c0.09,0.44,0.47,0.74,0.9,0.74c0.06,0,0.12-0.01,0.18-0.02c0.5-0.1,0.82-0.58,0.72-1.08
	c-0.01-0.03-0.36-1.92-0.04-3.87c11.09,2.67,12.82,13.27,12.89,13.74c0.01,0.04,0.02,0.08,0.03,0.12c-0.99,0.23-1.74,0.2-2.02,0.22
	c-2.85,0.14-8.37,7.34-6.66,14.49c1.53,6.4,8.23,10.21,14.25,10.04c7.46-0.21,14.13-6.54,14.35-13.64
	C67.25,48.77,65.25,44.55,61.76,42.01z"/>
<path class="st0" d="M87.38,45.47c0-2.32,0-4.63,0-6.95c0-0.31-0.03-0.61-0.06-1.05c-4.96,1.39-11.42,3.74-18.36,7.82
	c-7.39,4.34-12.83,9.18-16.55,13.02c-4.22-4.09-10.15-9.03-17.98-13.46c-6.29-3.56-12.17-5.87-17.03-7.39c0,9.51,0,19.02,0,28.54
	c-0.22,3.05-0.13,5.5,0,7.22c0.09,1.15,0.22,2.24,1.03,3.04c0.67,0.67,1.67,1.01,3,1.01c20.66,0,41.32,0,61.97,0
	c2.6,0,3.98-1.38,3.98-3.98c0-2.4,0-4.8,0-7.2c0,0,0,0,0-0.01C87.42,63.8,87.44,56.2,87.38,45.47z"/>
</svg>
