<?xml version="1.0" encoding="utf-8"?>
<!-- Generator: Adobe Illustrator 28.3.0, SVG Export Plug-In . SVG Version: 6.00 Build 0)  -->
<svg version="1.1" id="Layer_1" xmlns="http://www.w3.org/2000/svg" xmlns:xlink="http://www.w3.org/1999/xlink" x="0px" y="0px"
	 viewBox="0 0 100 100" style="enable-background:new 0 0 100 100;" xml:space="preserve">
<style type="text/css">
	.st0{fill:#93D8C5;}
	.st1{fill:none;stroke:#93D8C5;stroke-width:2;stroke-miterlimit:10;}
	.st2{fill:none;stroke:#231F20;stroke-miterlimit:10;}
	.st3{fill:#231F20;}
	.st4{fill:#FFFFFF;}
	.st5{fill:none;stroke:#000000;stroke-width:2;stroke-miterlimit:10;}
	.st6{stroke:#000000;stroke-miterlimit:10;}
	.st7{fill:#FF061E;}
	.st8{fill:#BDDB6B;}
	.st9{fill:#49A579;}
	.st10{fill:#6666FF;}
	.st11{fill:#191919;}
	.st12{fill:#F9F8F2;}
</style>
<rect x="30.7" y="22.94" class="st1" width="38.68" height="62.6"/>
<g>
	<path class="st7" d="M29.66,24.07c-0.08-0.63-0.15-1.59,0.06-2.73c0.77-4.21,4.48-6.4,4.97-6.68c0.93-0.53,3.04-1.73,5.06-1.56
		c0,0,1.36,0.11,2.37-0.25c0.87-0.31,1.36-0.8,1.46-0.89c0.52-0.48,9.89-5.09,19.61,0.13c1.93,1.03,4.04,2.2,5.57,4.76
		c1.78,2.96,1.69,5.96,1.58,7.23"/>
	<path class="st7" d="M31.14,6.83c0.19-0.81,0.59-1.56,1.34-2.1c0.36-0.26,0.44-0.76,0.18-1.12c-0.26-0.36-0.76-0.44-1.12-0.18
		c-3.81,2.76-1.4,8.66-1.3,8.91c0.15,0.36,0.53,0.55,0.9,0.47c0.05-0.01,0.1-0.03,0.15-0.05c0.41-0.17,0.6-0.64,0.43-1.05
		c-0.01-0.03-0.64-1.58-0.71-3.3c9.94,0.35,13.27,9.11,13.41,9.49c0.01,0.03,0.03,0.07,0.05,0.1l1.38-0.84
		C45.26,15.78,41.28,7.23,31.14,6.83z"/>
</g>
<path class="st7" d="M70.38,84.31c0.11,0.53,0.21,1.34,0.02,2.26c-1.28,6.1-13.62,8.41-20.56,8.66c0,0-8.94,0.31-15.88-3.82
	c-3.5-2.08-4.11-4.1-4.27-4.86c-0.2-0.91-0.12-1.7-0.02-2.24C43.23,84.31,56.8,84.31,70.38,84.31z"/>
<g>
	<path class="st12" d="M48.45,19.68c-0.05-0.26,0.04-0.59,0.25-1c0.05-0.1,0.09-0.17,0.13-0.22l1.15-1.6
		c0.51-0.72,0.82-1.16,0.94-1.32c0.07-0.08,0.16-0.13,0.27-0.15c0.1-0.02,0.2,0,0.29,0.05c0.08,0.04,0.14,0.1,0.17,0.18
		c0.03,0.08,0.03,0.15,0,0.21c-0.48,0.65-1.17,1.61-2.08,2.89c-0.04,0.06-0.08,0.14-0.13,0.24c-0.11,0.21-0.16,0.38-0.14,0.5
		c0.02,0.12,0.08,0.22,0.2,0.28c0.21,0.11,0.49,0.12,0.84,0.03c0.35-0.09,0.72-0.24,1.09-0.46s0.7-0.45,0.98-0.71
		c0.06,0.09,0.06,0.18,0,0.29c-0.04,0.08-0.09,0.15-0.15,0.22c-0.06,0.07-0.1,0.11-0.12,0.13c-0.28,0.29-0.62,0.54-1.04,0.74
		c-0.42,0.21-0.83,0.34-1.24,0.39c-0.41,0.05-0.74,0.01-1-0.12C48.64,20.13,48.5,19.94,48.45,19.68z"/>
	<circle class="st12" cx="52.18" cy="14.35" r="0.68"/>
</g>
</svg>
