<?xml version="1.0" encoding="utf-8"?>
<!-- Generator: Adobe Illustrator 28.3.0, SVG Export Plug-In . SVG Version: 6.00 Build 0)  -->
<svg version="1.1" id="Layer_1" xmlns="http://www.w3.org/2000/svg" xmlns:xlink="http://www.w3.org/1999/xlink" x="0px" y="0px"
	 viewBox="0 0 100 100" style="enable-background:new 0 0 100 100;" xml:space="preserve">
<style type="text/css">
	.st0{fill:#93D8C5;}
	.st1{fill:none;stroke:#93D8C5;stroke-width:2;stroke-miterlimit:10;}
	.st2{fill:none;stroke:#231F20;stroke-miterlimit:10;}
	.st3{fill:#231F20;}
	.st4{fill:#FFFFFF;}
	.st5{fill:none;stroke:#000000;stroke-width:2;stroke-miterlimit:10;}
	.st6{stroke:#000000;stroke-miterlimit:10;}
	.st7{fill:#FF061E;}
	.st8{fill:#BDDB6B;}
	.st9{fill:#49A579;}
	.st10{fill:#6666FF;}
	.st11{fill:#191919;}
	.st12{fill:#F9F8F2;}
</style>
<path class="st0" d="M15.01,35.39c4.84,4.13,9.47,8.07,14.09,12.02c6.07,5.18,12.14,10.36,18.21,15.53c1.95,1.66,3.5,1.62,5.53-0.12
	c10.38-8.88,20.76-17.76,31.14-26.64c0.27-0.23,0.55-0.45,0.95-0.77c0.03,0.44,0.06,0.74,0.06,1.05c0,11.59,0,23.17,0,34.76
	c0,2.6-1.38,3.98-3.98,3.98c-20.66,0-41.32,0-61.97,0c-2.66,0-4.02-1.37-4.02-4.05c0-11.51,0-23.03,0-34.54
	C15.01,36.29,15.01,35.97,15.01,35.39z"/>
<path class="st0" d="M81.59,33.64c-10.28,8.8-20.57,17.61-30.94,26.48c-0.37,0.32-0.92,0.32-1.29,0L18.35,33.57
	c-0.44-0.37-0.57-0.97-0.34-1.45c0.22-0.45,0.81-0.6,1.04-0.65c1.91-0.44,21.73-0.08,25.17-0.02c12.21,0,24.41,0.01,36.62,0.01
	c0.46,0.01,0.88,0.25,1.09,0.64C82.17,32.6,82.04,33.24,81.59,33.64z"/>
<path class="st7" d="M53.59,57.18c-1.75-1.27-4.3-1.65-5.34-0.88c-0.1,0.07-0.34,0.27-0.7,0.45c-0.16-0.8-1.34-5.75-6.66-7.06
	c0.19-0.41,0.48-0.76,0.93-0.97c0.22-0.1,0.31-0.35,0.21-0.57c-0.1-0.22-0.36-0.31-0.57-0.21c-2.31,1.05-1.68,4.43-1.65,4.57
	c0.04,0.21,0.22,0.35,0.42,0.35c0.03,0,0.06,0,0.08-0.01c0.23-0.05,0.39-0.27,0.34-0.51c0-0.02-0.17-0.91-0.02-1.82
	c5.23,1.26,6.04,6.25,6.07,6.47c0,0.02,0.01,0.04,0.01,0.06c-0.46,0.11-0.82,0.09-0.95,0.1c-1.34,0.07-3.94,3.46-3.14,6.83
	c0.72,3.02,3.88,4.81,6.71,4.73c3.52-0.1,6.66-3.08,6.76-6.42C56.18,60.36,55.24,58.37,53.59,57.18z"/>
</svg>
