<?xml version="1.0" encoding="utf-8"?>
<!-- Generator: Adobe Illustrator 28.3.0, SVG Export Plug-In . SVG Version: 6.00 Build 0)  -->
<svg version="1.1" id="Layer_1" xmlns="http://www.w3.org/2000/svg" xmlns:xlink="http://www.w3.org/1999/xlink" x="0px" y="0px"
	 viewBox="0 0 50 50" style="enable-background:new 0 0 50 50;" xml:space="preserve">
<style type="text/css">
	.st0{fill:#93D8C5;}
	.st1{fill:none;stroke:#93D8C5;stroke-width:2;stroke-miterlimit:10;}
	.st2{fill:none;stroke:#231F20;stroke-miterlimit:10;}
	.st3{fill:#231F20;}
	.st4{fill:#FFFFFF;}
	.st5{fill:none;stroke:#000000;stroke-width:2;stroke-miterlimit:10;}
	.st6{stroke:#000000;stroke-miterlimit:10;}
	.st7{fill:#FF061E;}
	.st8{fill:#BDDB6B;}
	.st9{fill:#49A579;}
	.st10{fill:#6666FF;}
	.st11{fill:#191919;}
	.st12{fill:#F9F8F2;}
</style>
<path d="M35.4,44.3l-7.19-5.11c-1.51-1.07-3.54-1.05-5.02,0.05l-7.08,5.26c-2.28,1.69-5.4-0.52-4.55-3.23l2.63-8.42
	c0.55-1.77-0.09-3.69-1.6-4.76L5.39,23c-2.32-1.64-1.17-5.29,1.67-5.32l8.82-0.1c1.85-0.02,3.48-1.23,4.03-2.99l2.63-8.42
	c0.85-2.71,4.67-2.75,5.58-0.06l2.82,8.36c0.59,1.75,2.24,2.93,4.09,2.91l8.82-0.1c2.84-0.03,4.06,3.59,1.78,5.28l-7.08,5.26
	c-1.48,1.1-2.09,3.04-1.5,4.79l2.82,8.36C40.78,43.66,37.71,45.94,35.4,44.3z"/>
</svg>
