<?xml version="1.0" encoding="UTF-8"?><svg id="Layer_1" xmlns="http://www.w3.org/2000/svg" viewBox="0 0 50 50"><defs><style>.cls-1{fill:#000;stroke-width:0px;}</style></defs><path class="cls-1" d="M18.17,44.71c-.91,0-1.84-.2-2.74-.6-2.77-1.25-4.26-4.11-3.73-7.1l.27-1.51h-1.53c-3.04,0-5.58-1.98-6.32-4.92s.55-5.89,3.23-7.34l1.35-.73-.96-1.2c-1.89-2.37-1.93-5.6-.09-8.01,1.84-2.42,4.95-3.24,7.75-2.05l1.41.6.34-1.5c.68-2.96,3.17-5,6.21-5.07,3.05-.05,5.62,1.85,6.44,4.78l.41,1.48,1.38-.67c2.74-1.32,5.89-.64,7.83,1.69,1.95,2.33,2.06,5.55.28,8.01l-.9,1.24,1.38.67c2.74,1.32,4.17,4.2,3.56,7.18-.61,2.98-3.05,5.07-6.09,5.21l-1.53.07.34,1.49c.68,2.96-.69,5.88-3.39,7.26-2.71,1.38-5.87.77-7.87-1.51l-1.01-1.15-.96,1.2c-1.28,1.61-3.13,2.47-5.06,2.47ZM12.79,14.56c-.91,0-1.63.5-2.08,1.08-.61.8-.92,2.08.04,3.28l3.83,4.8-5.4,2.92c-1.35.73-1.57,2.03-1.32,3.01.25.98,1.06,2.02,2.59,2.02h6.14l-1.09,6.04c-.27,1.51.61,2.49,1.53,2.91.92.42,2.24.43,3.19-.77l3.83-4.8,4.04,4.62c1.01,1.15,2.33,1.08,3.23.62.9-.46,1.73-1.48,1.39-2.98l-1.37-5.98,6.13-.28c1.53-.07,2.29-1.15,2.5-2.14s-.08-2.28-1.46-2.94l-5.53-2.66,3.6-4.97c.9-1.24.53-2.51-.11-3.28-.65-.77-1.83-1.36-3.21-.69l-5.53,2.66-1.64-5.91c-.41-1.48-1.63-1.99-2.64-1.96-1.01.02-2.2.58-2.54,2.08l-1.37,5.98-5.65-2.4c-.39-.17-.76-.24-1.1-.24Z"/><circle class="cls-1" cx="23.89" cy="25" r="3.41"/></svg>