<?xml version="1.0" encoding="UTF-8"?><svg id="Layer_1" xmlns="http://www.w3.org/2000/svg" viewBox="0 0 50 50"><defs><style>.cls-1{fill:#000;stroke-width:0px;}</style></defs><path class="cls-1" d="M25,45.47c-11.29,0-20.47-9.18-20.47-20.47S13.71,4.53,25,4.53s20.47,9.18,20.47,20.47-9.18,20.47-20.47,20.47ZM25,8.53c-9.08,0-16.47,7.39-16.47,16.47s7.39,16.47,16.47,16.47,16.47-7.39,16.47-16.47-7.39-16.47-16.47-16.47Z"/><path class="cls-1" d="M32.49,27h-14.98c-1.1,0-2-.9-2-2s.9-2,2-2h14.98c1.1,0,2,.9,2,2s-.9,2-2,2Z"/><path class="cls-1" d="M25,34.49c-1.1,0-2-.9-2-2v-14.98c0-1.1.9-2,2-2s2,.9,2,2v14.98c0,1.1-.9,2-2,2Z"/></svg>