<?xml version="1.0" encoding="UTF-8"?><svg id="Layer_1" xmlns="http://www.w3.org/2000/svg" viewBox="0 0 50 50"><defs><style>.cls-1{fill:#000;stroke-width:0px;}</style></defs><path class="cls-1" d="M15.06,18.23c.44-.48,1.17-.58,1.73-.22l3.54,2.3c.62.4.8,1.24.4,1.86-.41.62-1.24.8-1.86.4l-3.54-2.3c-.62-.4-.8-1.24-.4-1.86.04-.06.09-.12.14-.18ZM8.05,14.16c.44-.48,1.17-.58,1.73-.22l3.54,2.3c.62.4.8,1.24.4,1.86-.41.62-1.24.8-1.86.4l-3.54-2.3c-.62-.4-.8-1.24-.4-1.86.04-.06.09-.12.14-.18ZM22.13,22.83c.44-.48,1.17-.58,1.73-.22l3.54,2.3c.62.4.8,1.24.4,1.86-.4.62-1.24.8-1.86.4l-3.54-2.3c-.62-.4-.8-1.24-.4-1.86.04-.06.09-.12.14-.18ZM29.21,27.42c.44-.48,1.17-.58,1.73-.22l3.54,2.3c.62.4.8,1.24.4,1.86-.41.63-1.24.8-1.86.4l-3.54-2.3c-.62-.4-.8-1.24-.4-1.86.04-.06.09-.12.14-.18ZM36.42,31.72c.44-.48,1.17-.58,1.73-.22l3.54,2.3c.62.4.8,1.24.4,1.86-.41.63-1.24.8-1.86.4l-3.54-2.3c-.62-.4-.8-1.24-.4-1.86.04-.06.09-.12.14-.18Z"/><polygon class="cls-1" points="31.75 35.23 31.75 35.23 31.75 35.23 31.75 35.23"/><polygon class="cls-1" points="26.67 20.11 26.67 20.11 26.67 20.11 26.67 20.11"/><path class="cls-1" d="M19.11,20.24c.04-.36.08-.72.15-1.07.01-.06.02-.11.03-.17.04-.19.1-.37.15-.55.22-.79.53-1.56.94-2.31.11-.21.24-.4.36-.59.3-.47.63-.93,1.01-1.38.73-.85,1.55-1.56,2.43-2.12.89-.56,1.88-1,2.97-1.3.24-.07.48-.11.72-.17.54-.11,1.09-.19,1.66-.22.94-.06,1.85,0,2.73.18.01,0,.02,0,.03,0,.23.05.45.1.68.16.15.04.29.08.44.13.14.04.28.09.42.14.24.09.49.19.73.3.07.03.14.06.21.09.25.12.49.25.74.39.32.18.64.38.95.59,1.19.83,2.16,1.83,2.91,2.99.04.06.08.12.11.18.09.15.18.3.26.45.07.13.15.26.21.4.05.1.1.21.15.32.09.19.17.37.25.56.03.08.06.16.1.24.08.21.15.42.22.62.02.06.04.11.05.17.08.27.12.54.18.8.37,1.67.35,3.38-.08,5.1-.08.32-.2.63-.28.95-.19.74.22,1.45.95,1.68.69.21,1.45-.18,1.68-.87.16-.48.31-.96.42-1.45.42-1.87.46-3.72.13-5.55-.11-.58-.25-1.16-.43-1.74-.03-.1-.08-.2-.11-.31-.04-.12-.08-.25-.13-.37-.02-.06-.05-.11-.07-.17-.07-.18-.14-.36-.22-.53-.07-.15-.14-.3-.21-.44-.08-.16-.15-.32-.24-.48-.16-.3-.32-.59-.5-.87-.03-.05-.06-.09-.09-.14-.17-.26-.35-.51-.53-.76-.02-.03-.05-.07-.07-.1-.06-.08-.13-.16-.2-.24-.08-.11-.17-.21-.26-.32-.16-.19-.33-.38-.51-.57,0-.01-.02-.02-.03-.03-.97-1.03-2.07-1.88-3.31-2.56-.03-.02-.06-.03-.09-.05-.26-.14-.52-.27-.79-.39-.15-.07-.31-.14-.47-.2-.07-.03-.13-.06-.2-.09-.06-.02-.12-.04-.19-.07-.15-.06-.29-.12-.44-.17-.16-.06-.33-.1-.49-.15-.05-.02-.1-.03-.15-.05-.38-.11-.75-.21-1.13-.29,0,0-.01,0-.02,0-.35-.07-.69-.13-1.04-.17-.18-.02-.35-.04-.53-.05-.16-.01-.31-.02-.47-.03-.22-.01-.45-.02-.67-.02-.06,0-.13,0-.19,0-.85.01-1.71.11-2.57.28-.02,0-.05,0-.07.01-.01,0-.03,0-.04.01-.35.08-.71.17-1.06.27-.08.02-.16.05-.25.07-.14.04-.28.08-.42.12-.29.1-.57.21-.85.31-.39.19-.78.38-1.17.57-.17.1-.34.21-.51.31,0,0-.01,0-.02.01-.79.47-1.53,1.02-2.22,1.65-.77.7-1.44,1.47-2.02,2.31-.07.09-.14.19-.21.28-.08.13-.15.26-.23.39-.07.12-.14.24-.21.36-.07.12-.14.24-.22.36-.08.17-.16.35-.24.52-.17.36-.32.73-.46,1.11-.03.09-.08.18-.11.28-.05.15-.09.3-.14.45-.11.36-.22.71-.3,1.07-.07.32-.14.64-.19.95-.03.19-.05.38-.07.56-.02.18-.04.35-.05.53l2.79-.15Z"/><path class="cls-1" d="M12.74,40.45s.06.03.09.05c.25.15.51.29.78.42.15.08.31.15.46.22.07.03.13.06.2.09.06.03.12.05.18.07.15.06.29.13.43.19.16.06.33.11.49.17.05.02.1.04.15.05.37.12.74.24,1.12.33,0,0,.01,0,.02,0,.34.08.69.15,1.03.21.18.03.35.05.53.07.16.02.31.04.47.05.22.02.45.04.67.04.06,0,.13,0,.19,0,.85.02,1.71-.05,2.58-.19.02,0,.05,0,.07,0,.01,0,.03,0,.04,0,.36-.06.71-.14,1.07-.23.08-.02.17-.04.25-.06.14-.04.28-.07.43-.11.29-.09.57-.18.86-.28.4-.17.79-.35,1.19-.52.17-.1.35-.2.52-.29,0,0,.01,0,.02-.01.81-.44,1.57-.96,2.28-1.57.8-.67,1.49-1.42,2.1-2.23.07-.09.15-.18.22-.28.08-.13.16-.26.24-.38.08-.12.15-.23.23-.35.08-.12.15-.24.23-.36.09-.17.17-.34.26-.52.18-.35.34-.72.5-1.1.04-.09.08-.18.12-.27.06-.14.1-.29.15-.44.13-.35.24-.71.34-1.06.09-.32.16-.63.23-.95.04-.19.06-.37.09-.56.03-.23.07-.45.09-.68,0-.08.01-.16.02-.24l-2.79.13c-.05.47-.12.92-.23,1.37-.01.06-.02.11-.04.17-.05.18-.11.36-.16.54-.25.78-.59,1.54-1.02,2.28-.12.2-.25.39-.38.58-.32.46-.66.91-1.06,1.34-.76.83-1.6,1.5-2.5,2.04-.91.53-1.92.93-3.02,1.19-.24.06-.49.1-.73.14-.54.09-1.09.15-1.67.16-.94.02-1.85-.07-2.73-.27-.01,0-.02,0-.03,0-.23-.05-.45-.12-.67-.19-.15-.05-.29-.09-.43-.15-.14-.05-.27-.1-.41-.15-.24-.1-.48-.21-.72-.32-.07-.03-.14-.06-.21-.1-.24-.13-.48-.27-.72-.41-.32-.19-.63-.4-.93-.63-1.16-.87-2.09-1.91-2.8-3.09-.04-.06-.07-.12-.11-.18-.09-.15-.17-.31-.25-.46-.07-.13-.14-.27-.2-.41-.05-.11-.09-.21-.14-.32-.08-.19-.16-.38-.23-.57-.03-.08-.06-.16-.09-.25-.07-.21-.14-.42-.2-.63-.01-.06-.03-.11-.05-.17-.04-.16-.06-.33-.09-.49-.38-1.79-.33-3.6.2-5.41.09-.32.22-.62.31-.94.22-.73-.16-1.46-.89-1.71-.68-.23-1.45.12-1.71.81-.18.47-.34.95-.47,1.43-.53,1.98-.59,3.96-.24,5.94.08.45.16.9.29,1.36.03.11.07.21.1.31.04.12.07.25.11.37.02.06.04.12.07.17.06.18.13.36.2.54.06.15.12.3.19.45.07.16.14.33.22.49.15.3.3.6.47.89.03.05.06.09.09.14.16.27.33.53.5.78.02.03.04.07.07.1.06.09.13.16.19.25.08.11.16.22.25.33.16.2.32.39.49.58,0,.01.02.02.03.03.93,1.06,2.01,1.95,3.22,2.67Z"/></svg>