<?xml version="1.0" encoding="utf-8"?>
<!-- Generator: Adobe Illustrator 28.3.0, SVG Export Plug-In . SVG Version: 6.00 Build 0)  -->
<svg version="1.1" id="Layer_1" xmlns="http://www.w3.org/2000/svg" xmlns:xlink="http://www.w3.org/1999/xlink" x="0px" y="0px"
	 viewBox="0 0 50 50" style="enable-background:new 0 0 50 50;" xml:space="preserve">
<style type="text/css">
	.st0{fill:#93D8C5;}
	.st1{fill:none;stroke:#93D8C5;stroke-width:2;stroke-miterlimit:10;}
	.st2{fill:none;stroke:#231F20;stroke-miterlimit:10;}
	.st3{fill:#231F20;}
	.st4{fill:#FFFFFF;}
	.st5{fill:none;stroke:#000000;stroke-width:2;stroke-miterlimit:10;}
	.st6{stroke:#000000;stroke-miterlimit:10;}
	.st7{fill:#FF061E;}
	.st8{fill:#BDDB6B;}
	.st9{fill:#49A579;}
	.st10{fill:#6666FF;}
	.st11{fill:#191919;}
	.st12{fill:#F9F8F2;}
</style>
<path class="st3" d="M35.1,45.49c1.23,0,2.19-1.09,2-2.3c-1.1-6.97-7.14-12.31-14.43-12.31S9.34,36.21,8.24,43.19
	c-0.19,1.21,0.77,2.3,2,2.3H35.1z"/>
<path class="st3" d="M27.46,11.43c0.68-0.37,1.51,0.13,1.5,0.9l-0.09,5.64l-0.13,5.63c-0.02,0.78-0.87,1.25-1.53,0.85l-4.83-2.9
	l-4.82-2.93c-0.66-0.4-0.64-1.37,0.03-1.75l4.93-2.74L27.46,11.43z"/>
<path class="st3" d="M18.45,25.01l0.47-1.98c0.08-0.36,0.44-0.58,0.8-0.49l14.74,3.51c0.36,0.08,0.58,0.44,0.49,0.8l-0.47,1.98
	c-0.08,0.36-0.44,0.58-0.8,0.49L18.94,25.8C18.59,25.72,18.37,25.36,18.45,25.01z"/>
<path class="st3" d="M13.92,30.95l-0.11-2.03c-0.02-0.37,0.26-0.68,0.62-0.7l15.13-0.85c0.37-0.02,0.68,0.26,0.7,0.62l0.11,2.03
	c0.02,0.37-0.26,0.68-0.62,0.7l-15.13,0.85C14.25,31.6,13.94,31.32,13.92,30.95z"/>
</svg>
